<?xml version="1.0" standalone="no"?>
<svg xmlns="http://www.w3.org/2000/svg" viewBox="0 0 138.96 29" width="138.96" height="29"><g fill="#ffffff" color="#ffffff" transform="translate(0, 0) scale(0.29)"><svg width="100.0" height="100.0" x="0.0" y="0.0" viewBox="0 0 100 100"><g><path d="M44.3,43c-3.7,0-6.8-3-6.8-6.8s3-6.8,6.8-6.8s6.8,3,6.8,6.8h2.6c0-4.7-3.5-8.7-8.1-9.3v-5.2H43V27   c-4.6,0.6-8.1,4.6-8.1,9.3c0,5.2,4.2,9.4,9.4,9.4c3.7,0,6.8,3,6.8,6.8s-3,6.8-6.8,6.8s-6.8-3-6.8-6.8h-2.6c0,4.7,3.5,8.7,8.1,9.3   v5.2h2.6v-5.2c4.6-0.6,8.1-4.6,8.1-9.3C53.7,47.2,49.5,43,44.3,43z"></path><path d="M81.5,16.3h-4.8c-0.7,0-1.3,0.6-1.3,1.3s0.6,1.3,1.3,1.3h4.8c0.2,0,0.3,0.1,0.3,0.3v72.8   c0,0.2-0.1,0.3-0.3,0.3H29.8c-0.2,0-0.3-0.1-0.3-0.3v-4.8c0-0.7-0.6-1.3-1.3-1.3s-1.3,0.6-1.3,1.3v4.8c0,1.6,1.3,2.9,2.9,2.9h51.7   c1.6,0,2.9-1.3,2.9-2.9V19.2C84.4,17.6,83.1,16.3,81.5,16.3z"></path><path d="M60.6,83.7C60.7,83.7,60.7,83.7,60.6,83.7c0.1,0,0.1,0,0.1,0c0,0,0,0,0.1,0c0,0,0,0,0.1,0c0,0,0,0,0.1,0   c0,0,0,0,0.1,0c0,0,0,0,0.1,0c0,0,0,0,0.1,0c0,0,0,0,0.1,0c0,0,0,0,0.1,0c0,0,0,0,0.1,0c0,0,0,0,0,0c0,0,0.1-0.1,0.1-0.1L72.7,72   c0,0,0.1-0.1,0.1-0.1c0,0,0,0,0,0c0,0,0,0,0-0.1c0,0,0,0,0-0.1c0,0,0,0,0-0.1c0,0,0,0,0-0.1c0,0,0,0,0-0.1c0,0,0,0,0-0.1   c0,0,0,0,0-0.1c0,0,0,0,0-0.1c0,0,0,0,0-0.1c0,0,0,0,0-0.1c0,0,0,0,0-0.1c0,0,0-0.1,0-0.1c0,0,0,0,0,0V7.9c0-1.6-1.3-2.9-2.9-2.9   H18.5c-1.6,0-2.9,1.3-2.9,2.9v72.8c0,1.6,1.3,2.9,2.9,2.9h42C60.5,83.7,60.6,83.7,60.6,83.7z M61.8,79.2v-6.5   c0-0.2,0.1-0.3,0.3-0.3h6.5L61.8,79.2z M18.2,80.8V7.9c0-0.2,0.1-0.3,0.3-0.3h51.7c0.2,0,0.3,0.1,0.3,0.3v61.8h-8.4   c-1.6,0-2.9,1.3-2.9,2.9v8.4H18.5C18.3,81.1,18.2,80.9,18.2,80.8z"></path></g></svg></g><line x1="41" y1="1" x2="41" y2="28" stroke="#ffffff" stroke-linecap="round"></line><path fill="#ffffff" fill-rule="nonzero" d="M6.17 16.27L0 16.27L0 16.03L0.48 15.84Q0.96 15.67 1.12 15.38Q1.27 15.10 1.27 14.62L1.27 14.62L1.27 2.09Q1.27 1.61 1.13 1.32Q0.98 1.03 0.48 0.86L0.48 0.86L0 0.67L0 0.43L6.17 0.43L6.17 0.67L5.69 0.86Q5.21 1.03 5.05 1.32Q4.90 1.61 4.90 2.09L4.90 2.09L4.90 14.62Q4.90 15.10 5.05 15.37Q5.21 15.65 5.69 15.84L5.69 15.84L6.17 16.03L6.17 16.27ZM11.18 16.27L7.54 16.27L7.54 16.03L8.33 15.79Q8.76 15.67 8.95 15.32Q9.14 14.98 9.14 14.50L9.14 14.50L9.14 2.95Q8.88 2.38 8.72 2.09Q8.57 1.80 8.38 1.60Q8.18 1.39 7.85 1.08L7.85 1.08L7.44 0.67L7.44 0.43L11.69 0.43L19.66 11.30L19.66 2.26Q19.66 1.78 19.50 1.39Q19.34 1.01 18.86 0.89L18.86 0.89L18.07 0.67L18.07 0.43L21.50 0.43L21.50 0.67L20.86 0.89Q20.42 1.03 20.33 1.39Q20.23 1.75 20.23 2.23L20.23 2.23L20.23 16.34L18.89 16.34L9.72 3.74L9.72 14.50Q9.72 14.98 9.86 15.31Q10.01 15.65 10.46 15.79L10.46 15.79L11.18 16.03L11.18 16.27ZM30.96 16.34L29.18 16.34L24.05 2.04Q23.88 1.56 23.60 1.28Q23.33 1.01 22.85 0.86L22.85 0.86L22.27 0.67L22.27 0.43L29.18 0.43L29.18 0.67L28.44 0.89Q27.89 1.03 27.83 1.39Q27.77 1.75 27.94 2.28L27.94 2.28L31.49 12.82L35.06 2.26Q35.26 1.70 35.24 1.34Q35.23 0.98 34.68 0.84L34.68 0.84L34.06 0.67L34.06 0.43L37.42 0.43L37.42 0.67L36.77 0.86Q36.31 0.98 36.12 1.28Q35.93 1.58 35.76 2.06L35.76 2.06L30.96 16.34ZM45.58 16.70L45.58 16.70Q44.11 16.70 42.76 16.18Q41.40 15.65 40.33 14.60Q39.26 13.56 38.64 12.00Q38.02 10.44 38.02 8.35L38.02 8.35Q38.02 6.29 38.64 4.73Q39.26 3.17 40.34 2.12Q41.42 1.08 42.78 0.54Q44.14 0 45.58 0L45.58 0Q47.04 0 48.40 0.52Q49.75 1.03 50.82 2.08Q51.89 3.12 52.51 4.69Q53.14 6.26 53.14 8.35L53.14 8.35Q53.14 10.39 52.51 11.96Q51.89 13.54 50.82 14.58Q49.75 15.62 48.40 16.16Q47.04 16.70 45.58 16.70ZM45.58 16.20L45.58 16.20Q46.90 16.20 47.71 15.49Q48.53 14.78 48.90 13.07Q49.27 11.35 49.27 8.35L49.27 8.35Q49.27 5.33 48.90 3.61Q48.53 1.90 47.71 1.19Q46.90 0.48 45.58 0.48L45.58 0.48Q44.28 0.48 43.46 1.19Q42.65 1.90 42.28 3.61Q41.90 5.33 41.90 8.35L41.90 8.35Q41.90 11.35 42.28 13.07Q42.65 14.78 43.46 15.49Q44.28 16.20 45.58 16.20ZM60.31 16.27L54.14 16.27L54.14 16.03L54.62 15.84Q55.10 15.67 55.26 15.38Q55.42 15.10 55.42 14.62L55.42 14.62L55.42 2.09Q55.42 1.61 55.27 1.32Q55.13 1.03 54.62 0.86L54.62 0.86L54.14 0.67L54.14 0.43L60.31 0.43L60.31 0.67L59.83 0.86Q59.35 1.03 59.20 1.32Q59.04 1.61 59.04 2.09L59.04 2.09L59.04 14.62Q59.04 15.10 59.20 15.37Q59.35 15.65 59.83 15.84L59.83 15.84L60.31 16.03L60.31 16.27ZM69.62 16.70L69.62 16.70Q67.30 16.70 65.41 15.76Q63.53 14.81 62.42 12.94Q61.32 11.06 61.32 8.35L61.32 8.35Q61.32 6.29 61.99 4.73Q62.66 3.17 63.83 2.11Q64.99 1.06 66.52 0.53Q68.04 0 69.74 0L69.74 0Q71.11 0 72.26 0.31Q73.42 0.62 74.42 1.18L74.42 1.18L74.52 4.13L74.28 4.13L73.08 2.21Q72.84 1.75 72.55 1.38Q72.26 1.01 71.83 0.82L71.83 0.82Q71.47 0.65 71.12 0.56Q70.78 0.48 70.25 0.48L70.25 0.48Q68.86 0.48 67.72 1.22Q66.58 1.97 65.89 3.68Q65.21 5.40 65.21 8.38L65.21 8.38Q65.21 11.33 65.86 13.04Q66.50 14.76 67.62 15.49Q68.74 16.22 70.13 16.22L70.13 16.22Q70.90 16.22 71.35 16.12Q71.81 16.01 72.26 15.79L72.26 15.79Q72.72 15.60 72.96 15.23Q73.20 14.86 73.39 14.42L73.39 14.42L74.45 12.07L74.69 12.07L74.62 15.50Q73.61 16.03 72.36 16.37Q71.11 16.70 69.62 16.70ZM87.82 16.27L75.84 16.27L75.84 16.03L76.39 15.82Q76.80 15.65 76.96 15.37Q77.11 15.10 77.11 14.62L77.11 14.62L77.11 2.09Q77.11 1.61 76.98 1.33Q76.85 1.06 76.39 0.89L76.39 0.89L75.84 0.67L75.84 0.43L87.34 0.43L87.48 4.13L87.24 4.13L86.21 1.87Q85.99 1.44 85.75 1.18Q85.51 0.91 85.03 0.91L85.03 0.91L80.71 0.91L80.71 7.85L83.28 7.85Q83.76 7.85 84.01 7.60Q84.26 7.34 84.46 6.91L84.46 6.91L84.94 5.95L85.18 5.95L85.18 10.27L84.94 10.27L84.46 9.26Q84.24 8.83 84 8.58Q83.76 8.33 83.28 8.33L83.28 8.33L80.71 8.33L80.71 15.79L85.56 15.79Q86.04 15.79 86.30 15.54Q86.57 15.29 86.74 14.83L86.74 14.83L87.72 12.58L87.96 12.58L87.82 16.27Z" transform="translate(51, 6.364)"></path></svg>